<?xml version="1.0" encoding="UTF-8" standalone="no"?>
<svg
   xmlns:dc="http://purl.org/dc/elements/1.1/"
   xmlns:cc="http://creativecommons.org/ns#"
   xmlns:rdf="http://www.w3.org/1999/02/22-rdf-syntax-ns#"
   xmlns:svg="http://www.w3.org/2000/svg"
   xmlns="http://www.w3.org/2000/svg"
   viewBox="0 0 579.84003 954.56"
   height="954.56"
   width="579.84003"
   xml:space="preserve"
   id="svg2"
   version="1.1"><metadata
     id="metadata8"><rdf:RDF><cc:Work
         rdf:about=""><dc:format>image/svg+xml</dc:format><dc:type
           rdf:resource="http://purl.org/dc/dcmitype/StillImage" /></cc:Work></rdf:RDF></metadata><defs
     id="defs6"><clipPath
       id="clipPath18"
       clipPathUnits="userSpaceOnUse"><path
         style="clip-rule:evenodd"
         id="path16"
         d="M 0,0 H 1812.0117 V 2984 H 0 Z" /></clipPath><clipPath
       id="clipPath30"
       clipPathUnits="userSpaceOnUse"><path
         style="clip-rule:evenodd"
         id="path28"
         d="m 6.25,12.5 h 1800 V 2971.875 H 6.25 Z" /></clipPath></defs><g
     transform="matrix(0.31999998,0,0,0.31999998,0,2.0530666e-5)"
     id="g10"><g
       id="g12"><g
         clip-path="url(#clipPath18)"
         id="g14"><g
           transform="scale(3.125)"
           id="g20"><path
             id="path22"
             style="fill:#ffffff;fill-opacity:1;fill-rule:nonzero;stroke:none"
             d="M 0,0 H 580 V 955 H 0 Z" /></g></g></g><g
       id="g24"><g
         clip-path="url(#clipPath30)"
         id="g26"><g
           transform="matrix(2.9676895,0,0,2.9676895,-5403.6777,-100.11489)"
           id="g32"><path
             id="path34"
             style="fill:none;stroke:#000000;stroke-width:1;stroke-linecap:butt;stroke-linejoin:miter;stroke-miterlimit:10;stroke-dasharray:none;stroke-opacity:1"
             d="m 1825,40 h 600 v 990 h -600 z" /><path
             id="path36"
             style="fill:none;stroke:#000000;stroke-width:1;stroke-linecap:butt;stroke-linejoin:miter;stroke-miterlimit:10;stroke-dasharray:none;stroke-opacity:1"
             d="m 1825,80 600,-0.400002" /><text
             id="text40"
             style="font-variant:normal;font-weight:normal;font-size:13px;font-family:ArialMT;-inkscape-font-specification:ArialMT;writing-mode:lr-tb;fill:#000000;fill-opacity:1;fill-rule:nonzero;stroke:none"
             transform="translate(1916.5938,65)"><tspan
               id="tspan38"
               y="0"
               x="0 7.940918 15.170898 21.670898 28.900879 32.512695 41.900879 49.130859 55.630859 62.86084 70.09082 77.320801 80.208984 83.820801 86.708984 93.938965 101.16895 104.06348 112.73438 116.34619 119.95801 127.18799 134.41797 141.64795 148.87793 156.10791 162.60791 169.83789 173.44971 182.12061 188.62061 195.12061 198.73242 205.9624">Face Recognition Attendance System</tspan></text>
<path
             id="path42"
             style="fill:none;stroke:#000000;stroke-width:1;stroke-linecap:butt;stroke-linejoin:miter;stroke-miterlimit:10;stroke-dasharray:none;stroke-opacity:1"
             d="M 2225.1201,40 2225,1030" /><text
             id="text46"
             style="font-variant:normal;font-weight:normal;font-size:13px;font-family:ArialMT;-inkscape-font-specification:ArialMT;writing-mode:lr-tb;fill:#000000;fill-opacity:1;fill-rule:nonzero;stroke:none"
             transform="translate(2302.5781,65)"><tspan
               id="tspan44"
               y="0"
               x="0 8.6708984 12.282715 19.512695 26.742676 33.972656 41.202637">Student</tspan></text>
</g><g
           transform="matrix(2.9676895,0,0,2.9676895,-5402.1938,-98.63105)"
           id="g48"><path
             id="path50"
             style="fill:none;stroke:#000000;stroke-width:1;stroke-linecap:butt;stroke-linejoin:miter;stroke-miterlimit:10;stroke-dasharray:none;stroke-opacity:1"
             d="m 2025,110 v 20 -20 13.63" /><path
             id="path52"
             style="fill:#000000;fill-opacity:1;fill-rule:nonzero;stroke:none"
             d="m 2025,128.88 -3.5,-7 3.5,1.75 3.5,-1.75 z" /><path
             id="path54"
             style="fill:none;stroke:#000000;stroke-width:1;stroke-linecap:butt;stroke-linejoin:miter;stroke-miterlimit:10;stroke-dasharray:none;stroke-opacity:1"
             d="m 2025,128.88 -3.5,-7 3.5,1.75 3.5,-1.75 z" /><path
             id="path56"
             style="fill:#000000;fill-opacity:1;fill-rule:nonzero;stroke:none"
             d="m 2035,100 c -10e-5,0.65661 -0.064,1.3069 -0.1923,1.95089 -0.1281,0.64399 -0.3178,1.2693 -0.5691,1.87593 -0.2512,0.60662 -0.5592,1.18291 -0.924,1.72887 -0.3648,0.54595 -0.7793,1.05108 -1.2436,1.51537 -0.4643,0.46429 -0.9696,0.87883 -1.5156,1.24362 -0.546,0.36479 -1.1223,0.67283 -1.7289,0.9241 -0.6065,0.25128 -1.2319,0.44096 -1.8758,0.56907 -0.6439,0.12809 -1.2941,0.19214 -1.9507,0.19215 -0.6566,-1e-5 -1.307,-0.0641 -1.951,-0.19216 -0.6441,-0.1281 -1.2695,-0.31779 -1.876,-0.56906 -0.6067,-0.25128 -1.183,-0.55931 -1.7288,-0.9241 -0.5459,-0.36479 -1.051,-0.77933 -1.5152,-1.24362 -0.4643,-0.46429 -0.8788,-0.96942 -1.2437,-1.51538 -0.3649,-0.54595 -0.6728,-1.12224 -0.9242,-1.72886 -0.2513,-0.60663 -0.4412,-1.23193 -0.5692,-1.87592 -0.1281,-0.64399 -0.192,-1.29429 -0.1919,-1.9509 -10e-5,-0.656609 0.064,-1.306915 0.1919,-1.950905 0.128,-0.643997 0.3177,-1.26931 0.5691,-1.875938 0.2513,-0.606621 0.5594,-1.182915 0.9243,-1.728867 0.3649,-0.545952 0.7794,-1.051071 1.2437,-1.515358 0.4642,-0.464302 0.9693,-0.878845 1.5151,-1.243637 0.5459,-0.364792 1.1222,-0.672821 1.7289,-0.924095 0.6065,-0.251274 1.2319,-0.440956 1.876,-0.569054 C 2023.693,90.064049 2024.3434,90 2025,90 c 0.6566,0 1.3069,0.06405 1.9508,0.192146 0.6439,0.128098 1.2692,0.31778 1.8757,0.569054 0.6066,0.251274 1.183,0.559303 1.729,0.924095 0.5461,0.364792 1.0512,0.779335 1.5155,1.243637 0.4643,0.464287 0.8788,0.969406 1.2437,1.515358 0.3647,0.545952 0.6727,1.122246 0.9239,1.728867 0.2513,0.606628 0.441,1.231941 0.569,1.875938 0.1282,0.64399 0.1923,1.294296 0.1924,1.950905 z" /><path
             id="path58"
             style="fill:none;stroke:#000000;stroke-width:1;stroke-linecap:butt;stroke-linejoin:miter;stroke-miterlimit:10;stroke-dasharray:none;stroke-opacity:1"
             d="m 2035,100 c -10e-5,0.65661 -0.064,1.3069 -0.1923,1.95089 -0.1281,0.64399 -0.3178,1.2693 -0.5691,1.87593 -0.2512,0.60662 -0.5592,1.18291 -0.924,1.72887 -0.3648,0.54595 -0.7793,1.05108 -1.2436,1.51537 -0.4643,0.46429 -0.9696,0.87883 -1.5156,1.24362 -0.546,0.36479 -1.1223,0.67283 -1.7289,0.9241 -0.6065,0.25128 -1.2319,0.44096 -1.8758,0.56907 -0.6439,0.12809 -1.2941,0.19214 -1.9507,0.19215 -0.6566,-1e-5 -1.307,-0.0641 -1.951,-0.19216 -0.6441,-0.1281 -1.2695,-0.31779 -1.876,-0.56906 -0.6067,-0.25128 -1.183,-0.55931 -1.7288,-0.9241 -0.5459,-0.36479 -1.051,-0.77933 -1.5152,-1.24362 -0.4643,-0.46429 -0.8788,-0.96942 -1.2437,-1.51538 -0.3649,-0.54595 -0.6728,-1.12224 -0.9242,-1.72886 -0.2513,-0.60663 -0.4412,-1.23193 -0.5692,-1.87592 -0.1281,-0.64399 -0.192,-1.29429 -0.1919,-1.9509 -10e-5,-0.656609 0.064,-1.306915 0.1919,-1.950905 0.128,-0.643997 0.3177,-1.26931 0.5691,-1.875938 0.2513,-0.606621 0.5594,-1.182915 0.9243,-1.728867 0.3649,-0.545952 0.7794,-1.051071 1.2437,-1.515358 0.4642,-0.464302 0.9693,-0.878845 1.5151,-1.243637 0.5459,-0.364792 1.1222,-0.672821 1.7289,-0.924095 0.6065,-0.251274 1.2319,-0.440956 1.876,-0.569054 C 2023.693,90.064049 2024.3434,90 2025,90 c 0.6566,0 1.3069,0.06405 1.9508,0.192146 0.6439,0.128098 1.2692,0.31778 1.8757,0.569054 0.6066,0.251274 1.183,0.559303 1.729,0.924095 0.5461,0.364792 1.0512,0.779335 1.5155,1.243637 0.4643,0.464287 0.8788,0.969406 1.2437,1.515358 0.3647,0.545952 0.6727,1.122246 0.9239,1.728867 0.2513,0.606628 0.441,1.231941 0.569,1.875938 0.1282,0.64399 0.1923,1.294296 0.1924,1.950905 z" /><path
             id="path60"
             style="fill:none;stroke:#000000;stroke-width:1;stroke-linecap:butt;stroke-linejoin:miter;stroke-miterlimit:10;stroke-dasharray:none;stroke-opacity:1"
             d="m 2025,160 v 20 -20 13.63" /><path
             id="path62"
             style="fill:#000000;fill-opacity:1;fill-rule:nonzero;stroke:none"
             d="m 2025,178.88 -3.5,-7 3.5,1.75 3.5,-1.75 z" /><path
             id="path64"
             style="fill:none;stroke:#000000;stroke-width:1;stroke-linecap:butt;stroke-linejoin:miter;stroke-miterlimit:10;stroke-dasharray:none;stroke-opacity:1"
             d="m 2025,178.88 -3.5,-7 3.5,1.75 3.5,-1.75 z" /><path
             id="path66"
             style="fill:none;stroke:#000000;stroke-width:1;stroke-linecap:butt;stroke-linejoin:miter;stroke-miterlimit:10;stroke-dasharray:none;stroke-opacity:1"
             d="m 1889.5,130 h 271 c 0.5964,0 1.1704,0.11418 1.7217,0.34253 0.5512,0.22836 1.0381,0.55353 1.4602,0.97548 0.4216,0.42195 0.7468,0.90858 0.9753,1.4599 0.2283,0.55131 0.3426,1.12535 0.3428,1.72209 v 21 c -2e-4,0.59672 -0.1145,1.17075 -0.3428,1.72206 -0.2285,0.55132 -0.5537,1.03795 -0.9753,1.45992 -0.4221,0.42195 -0.909,0.7471 -1.4602,0.97545 -0.5513,0.22837 -1.1253,0.34255 -1.7217,0.34257 h -271 c -0.5968,-2e-5 -1.1709,-0.1142 -1.7223,-0.34257 -0.5514,-0.22835 -1.038,-0.5535 -1.4598,-0.97545 -0.4221,-0.42197 -0.7473,-0.9086 -0.9755,-1.45992 -0.2284,-0.55131 -0.3425,-1.12534 -0.3424,-1.72206 v -21 c -10e-5,-0.59674 0.1139,-1.17078 0.3423,-1.72209 0.2283,-0.55132 0.5535,-1.03795 0.9756,-1.4599 0.4218,-0.42195 0.9084,-0.74712 1.4598,-0.97548 C 1888.3291,130.11418 1888.9032,130 1889.5,130 Z" /></g><g
           transform="matrix(2.9676895,0,0,2.9676895,-5403.6777,-100.11489)"
           id="g68"><text
             id="text72"
             style="font-variant:normal;font-weight:normal;font-size:12px;font-family:ArialMT;-inkscape-font-specification:ArialMT;writing-mode:lr-tb;fill:#000000;fill-opacity:1;fill-rule:nonzero;stroke:none"
             transform="translate(1894.9219,149)"><tspan
               id="tspan70"
               y="0"
               x="0 9.3339844 16.007812 22.681641 29.355469 33.351562 40.025391 43.359375 50.033203 53.367188 60.697266 67.371094 73.371094 80.044922 83.378906 91.382812 98.056641 104.05664 110.73047 117.4043 120.07031 126.74414 133.41797 139.41797 142.75195 146.08594 150.08203 156.75586 166.75195 170.08594 177.41602 180.08203 184.07812 190.75195 197.42578 204.09961 210.09961 216.77344 220.10742 226.10742 229.44141 236.11523 240.11133 246.78516 253.45898">Generate Face Encodings from Firebase storage</tspan></text>
</g><g
           transform="matrix(2.9676895,0,0,2.9676895,-5402.1938,-98.63105)"
           id="g74"><path
             id="path76"
             style="fill:none;stroke:#000000;stroke-width:1;stroke-linecap:butt;stroke-linejoin:miter;stroke-miterlimit:10;stroke-dasharray:none;stroke-opacity:1"
             d="m 2025,210 v 20 -20 13.63" /><path
             id="path78"
             style="fill:#000000;fill-opacity:1;fill-rule:nonzero;stroke:none"
             d="m 2025,228.88 -3.5,-7 3.5,1.75 3.5,-1.75 z" /><path
             id="path80"
             style="fill:none;stroke:#000000;stroke-width:1;stroke-linecap:butt;stroke-linejoin:miter;stroke-miterlimit:10;stroke-dasharray:none;stroke-opacity:1"
             d="m 2025,228.88 -3.5,-7 3.5,1.75 3.5,-1.75 z" /><path
             id="path82"
             style="fill:none;stroke:#000000;stroke-width:1;stroke-linecap:butt;stroke-linejoin:miter;stroke-miterlimit:10;stroke-dasharray:none;stroke-opacity:1"
             d="m 1904.5,180 h 241 c 0.5964,0 1.1704,0.11418 1.7219,0.34253 0.5513,0.22836 1.0379,0.55353 1.46,0.97549 0.4216,0.42195 0.7468,0.90857 0.9751,1.45989 0.2285,0.55131 0.3428,1.12533 0.343,1.72209 v 21 c -2e-4,0.59673 -0.1145,1.17073 -0.343,1.72205 -0.2283,0.55131 -0.5535,1.03796 -0.9751,1.45993 -0.4221,0.42193 -0.9087,0.74708 -1.46,0.97546 -0.5515,0.22836 -1.1255,0.34254 -1.7219,0.34256 h -241 c -0.5968,-2e-5 -1.1708,-0.1142 -1.7222,-0.34254 -0.5514,-0.22838 -1.0379,-0.55355 -1.4599,-0.97548 -0.422,-0.42197 -0.7472,-0.90862 -0.9756,-1.45993 -0.2283,-0.55132 -0.3424,-1.12532 -0.3423,-1.72205 v -21 c -10e-5,-0.59676 0.114,-1.17078 0.3423,-1.72209 0.2284,-0.55132 0.5536,-1.03794 0.9756,-1.45989 0.422,-0.42196 0.9085,-0.74713 1.4598,-0.97549 C 1903.3291,180.11418 1903.9032,180 1904.5,180 Z" /></g><g
           transform="matrix(2.9676895,0,0,2.9676895,-5403.6777,-100.11489)"
           id="g84"><text
             id="text88"
             style="font-variant:normal;font-weight:normal;font-size:12px;font-family:ArialMT;-inkscape-font-specification:ArialMT;writing-mode:lr-tb;fill:#000000;fill-opacity:1;fill-rule:nonzero;stroke:none"
             transform="translate(1923.6094,199)"><tspan
               id="tspan86"
               y="0"
               x="0 8.0039062 14.677734 20.677734 27.351562 30.685547 38.689453 45.363281 51.363281 58.037109 64.710938 67.376953 74.050781 80.724609 86.724609 90.058594 96.732422 103.40625 110.08008 113.41406 116.74805 125.41406 131.41406 134.74805 138.08203 144.75586 148.08984 156.09375 158.75977 164.75977 170.75977 173.42578 180.09961 183.43359 190.76367 193.42969 196.0957">Save Encodings and IDs to Pickle File</tspan></text>
</g><g
           transform="matrix(2.9676895,0,0,2.9676895,-5402.1938,-98.63105)"
           id="g90"><path
             id="path92"
             style="fill:none;stroke:#000000;stroke-width:1;stroke-linecap:butt;stroke-linejoin:miter;stroke-miterlimit:10;stroke-dasharray:none;stroke-opacity:1"
             d="m 2025,260 v 20 -20 13.63" /><path
             id="path94"
             style="fill:#000000;fill-opacity:1;fill-rule:nonzero;stroke:none"
             d="m 2025,278.88 -3.5,-7 3.5,1.75 3.5,-1.75 z" /><path
             id="path96"
             style="fill:none;stroke:#000000;stroke-width:1;stroke-linecap:butt;stroke-linejoin:miter;stroke-miterlimit:10;stroke-dasharray:none;stroke-opacity:1"
             d="m 2025,278.88 -3.5,-7 3.5,1.75 3.5,-1.75 z" /><path
             id="path98"
             style="fill:none;stroke:#000000;stroke-width:1;stroke-linecap:butt;stroke-linejoin:miter;stroke-miterlimit:10;stroke-dasharray:none;stroke-opacity:1"
             d="m 1889.5,230 h 271 c 0.5964,0 1.1704,0.11418 1.7217,0.34253 0.5512,0.22835 1.0381,0.55351 1.4602,0.97548 0.4216,0.42195 0.7468,0.90857 0.9753,1.45988 0.2283,0.55132 0.3426,1.12535 0.3428,1.72211 v 21 c -2e-4,0.59671 -0.1145,1.17075 -0.3428,1.72208 -0.2285,0.5513 -0.5537,1.03793 -0.9753,1.4599 -0.4221,0.42193 -0.909,0.7471 -1.4602,0.97546 -0.5513,0.22836 -1.1253,0.34253 -1.7217,0.34256 h -271 c -0.5968,-3e-5 -1.1709,-0.1142 -1.7223,-0.34256 -0.5514,-0.22836 -1.038,-0.55353 -1.4598,-0.97546 -0.4221,-0.42197 -0.7473,-0.90863 -0.9755,-1.45993 -0.2284,-0.5513 -0.3425,-1.12534 -0.3424,-1.72205 v -21 c -10e-5,-0.59676 0.1139,-1.17079 0.3423,-1.72211 0.2283,-0.55131 0.5535,-1.03793 0.9756,-1.45988 0.4218,-0.42197 0.9084,-0.74713 1.4598,-0.97548 C 1888.3291,230.11418 1888.9032,230 1889.5,230 Z" /></g><g
           transform="matrix(2.9676895,0,0,2.9676895,-5403.6777,-100.11489)"
           id="g100"><text
             id="text104"
             style="font-variant:normal;font-weight:normal;font-size:12px;font-family:ArialMT;-inkscape-font-specification:ArialMT;writing-mode:lr-tb;fill:#000000;fill-opacity:1;fill-rule:nonzero;stroke:none"
             transform="translate(1888.9375,249)"><tspan
               id="tspan102"
               y="0"
               x="0 9.3339844 16.007812 19.341797 22.675781 31.341797 38.015625 42.011719 46.007812 52.681641 59.355469 62.689453 66.023438 74.689453 77.355469 84.029297 90.029297 96.029297 99.363281 108.0293 114.70312 121.37695 128.05078 131.38477 138.05859 144.73242 151.40625 154.74023 162.74414 169.41797 175.41797 178.75195 181.41797 188.0918 194.76562 198.09961 201.43359 205.42969 212.10352 222.09961 225.43359 232.76367 235.42969 239.42578 246.09961 252.77344 259.44727 265.44727">Get Current Class Code and Section from Firebase</tspan></text>
</g><g
           transform="matrix(2.9676895,0,0,2.9676895,-5402.1938,-98.63105)"
           id="g106"><path
             id="path108"
             style="fill:none;stroke:#000000;stroke-width:1;stroke-linecap:butt;stroke-linejoin:miter;stroke-miterlimit:10;stroke-dasharray:none;stroke-opacity:1"
             d="m 2025,310 v 20 -20 13.63" /><path
             id="path110"
             style="fill:#000000;fill-opacity:1;fill-rule:nonzero;stroke:none"
             d="m 2025,328.88 -3.5,-7 3.5,1.75 3.5,-1.75 z" /><path
             id="path112"
             style="fill:none;stroke:#000000;stroke-width:1;stroke-linecap:butt;stroke-linejoin:miter;stroke-miterlimit:10;stroke-dasharray:none;stroke-opacity:1"
             d="m 2025,328.88 -3.5,-7 3.5,1.75 3.5,-1.75 z" /><path
             id="path114"
             style="fill:none;stroke:#000000;stroke-width:1;stroke-linecap:butt;stroke-linejoin:miter;stroke-miterlimit:10;stroke-dasharray:none;stroke-opacity:1"
             d="m 1904.5,280 h 241 c 0.5964,0 1.1704,0.11417 1.7219,0.34253 0.5513,0.22836 1.0379,0.5535 1.46,0.97546 0.4216,0.42194 0.7468,0.90857 0.9751,1.4599 0.2285,0.5513 0.3428,1.12534 0.343,1.72211 v 21 c -2e-4,0.59671 -0.1145,1.17075 -0.343,1.72208 -0.2283,0.5513 -0.5535,1.03793 -0.9751,1.4599 -0.4221,0.42196 -0.9087,0.7471 -1.46,0.97546 C 2146.6704,309.8858 2146.0964,310 2145.5,310 h -241 c -0.5968,0 -1.1708,-0.1142 -1.7222,-0.34256 -0.5514,-0.22836 -1.0379,-0.5535 -1.4599,-0.97546 -0.422,-0.42197 -0.7472,-0.9086 -0.9756,-1.4599 -0.2283,-0.55133 -0.3424,-1.12537 -0.3423,-1.72208 v -21 c -10e-5,-0.59677 0.114,-1.17081 0.3423,-1.72211 0.2284,-0.55133 0.5536,-1.03796 0.9756,-1.4599 0.422,-0.42196 0.9085,-0.7471 1.4598,-0.97546 C 1903.3291,280.11417 1903.9032,280 1904.5,280 Z" /></g><g
           transform="matrix(2.9676895,0,0,2.9676895,-5403.6777,-100.11489)"
           id="g116"><text
             id="text120"
             style="font-variant:normal;font-weight:normal;font-size:12px;font-family:ArialMT;-inkscape-font-specification:ArialMT;writing-mode:lr-tb;fill:#000000;fill-opacity:1;fill-rule:nonzero;stroke:none"
             transform="translate(1939.2813,299)"><tspan
               id="tspan118"
               y="0"
               x="0 6.6738281 13.347656 20.021484 26.695312 30.029297 38.033203 44.707031 50.707031 57.380859 64.054688 66.720703 73.394531 80.068359 86.068359 89.402344 92.736328 96.732422 103.40625 113.40234 116.73633 124.74023 127.40625 133.40625 139.40625 142.07227 148.74609 152.08008 159.41016 162.07617 164.74219">Load Encodings from Pickle File</tspan></text>
</g><g
           transform="matrix(2.9676895,0,0,2.9676895,-5402.1938,-98.63105)"
           id="g122"><path
             id="path124"
             style="fill:none;stroke:#000000;stroke-width:1;stroke-linecap:butt;stroke-linejoin:miter;stroke-miterlimit:10;stroke-dasharray:none;stroke-opacity:1"
             d="m 2150,345 h 108.6299" /><path
             id="path126"
             style="fill:#000000;fill-opacity:1;fill-rule:nonzero;stroke:none"
             d="m 2263.8799,345 -7,3.5 1.75,-3.5 -1.75,-3.5 z" /><path
             id="path128"
             style="fill:none;stroke:#000000;stroke-width:1;stroke-linecap:butt;stroke-linejoin:miter;stroke-miterlimit:10;stroke-dasharray:none;stroke-opacity:1"
             d="m 2263.8799,345 -7,3.5 1.75,-3.5 -1.75,-3.5 z" /><path
             id="path130"
             style="fill:none;stroke:#000000;stroke-width:1;stroke-linecap:butt;stroke-linejoin:miter;stroke-miterlimit:10;stroke-dasharray:none;stroke-opacity:1"
             d="m 1904.5,330 h 241 c 0.5964,0 1.1704,0.11417 1.7219,0.3425 0.5513,0.22836 1.0379,0.55353 1.46,0.97549 0.4216,0.42194 0.7468,0.90857 0.9751,1.4599 0.2285,0.5513 0.3428,1.12534 0.343,1.72211 v 21 c -2e-4,0.59671 -0.1145,1.17075 -0.343,1.72205 -0.2283,0.55133 -0.5535,1.03796 -0.9751,1.45993 -0.4221,0.42193 -0.9087,0.7471 -1.46,0.97546 C 2146.6704,359.8858 2146.0964,360 2145.5,360 h -241 c -0.5968,0 -1.1708,-0.11417 -1.7222,-0.34253 -0.5514,-0.22839 -1.0379,-0.55356 -1.4599,-0.97549 -0.422,-0.42197 -0.7472,-0.9086 -0.9756,-1.45993 -0.2283,-0.5513 -0.3424,-1.12534 -0.3423,-1.72205 v -21 c -10e-5,-0.59677 0.114,-1.17081 0.3423,-1.72211 0.2284,-0.55133 0.5536,-1.03796 0.9756,-1.4599 0.422,-0.42196 0.9085,-0.74713 1.4598,-0.97549 0.5514,-0.22833 1.1255,-0.3425 1.7223,-0.3425 z" /></g><g
           transform="matrix(2.9676895,0,0,2.9676895,-5403.6777,-100.11489)"
           id="g132"><text
             id="text136"
             style="font-variant:normal;font-weight:normal;font-size:12px;font-family:ArialMT;-inkscape-font-specification:ArialMT;writing-mode:lr-tb;fill:#000000;fill-opacity:1;fill-rule:nonzero;stroke:none"
             transform="translate(1912.0625,349)"><tspan
               id="tspan134"
               y="0"
               x="0 8.0039062 11.337891 18.011719 22.007812 25.341797 28.675781 36.462891 39.128906 45.802734 52.476562 59.150391 62.484375 70.488281 73.822266 77.818359 84.492188 91.166016 101.16211 104.49609 111.16992 117.84375 124.51758 127.85156 136.51758 139.18359 145.18359 151.85742 154.52344 161.19727 167.19727 170.53125 178.53516 184.53516 190.53516 193.86914 200.54297 210.53906 213.87305 222.53906">Start Video Stream and Display System UI</tspan></text>
</g><g
           transform="matrix(2.9676895,0,0,2.9676895,-5402.1938,-98.63105)"
           id="g138"><path
             id="path140"
             style="fill:none;stroke:#000000;stroke-width:1;stroke-linecap:butt;stroke-linejoin:miter;stroke-miterlimit:10;stroke-dasharray:none;stroke-opacity:1"
             d="m 1906,440 h 238 c 0.3938,0 0.7839,0.0384 1.1704,0.11526 0.3862,0.0769 0.7612,0.19065 1.1253,0.34144 0.364,0.15075 0.7099,0.33557 1.0373,0.55444 0.3274,0.2189 0.6306,0.46762 0.9094,0.74618 0.2784,0.27857 0.5269,0.58164 0.7459,0.90918 0.219,0.32755 0.4038,0.67334 0.5547,1.03733 0.1508,0.36398 0.2649,0.73919 0.3418,1.12558 0.077,0.38641 0.1152,0.77661 0.1152,1.17059 v 28 c 0,0.39395 -0.038,0.78412 -0.1152,1.1705 -0.077,0.38638 -0.191,0.76157 -0.3418,1.12555 -0.1509,0.36398 -0.3357,0.70975 -0.5547,1.03735 -0.219,0.32758 -0.4675,0.63065 -0.7459,0.90921 -0.2788,0.27857 -0.582,0.52729 -0.9094,0.74616 -0.3274,0.21884 -0.6733,0.40369 -1.0373,0.55447 -0.3641,0.15076 -0.7391,0.26456 -1.1253,0.34143 -0.3865,0.0768 -0.7766,0.1153 -1.1704,0.11533 h -238 c -0.394,-3e-5 -0.7843,-0.0385 -1.1708,-0.11536 -0.3863,-0.0768 -0.7616,-0.19064 -1.1256,-0.3414 -0.3639,-0.15078 -0.7097,-0.33563 -1.0372,-0.55447 -0.3275,-0.21887 -0.6305,-0.46759 -0.9091,-0.74616 -0.2787,-0.27856 -0.5274,-0.58163 -0.7463,-0.90924 -0.2189,-0.32757 -0.4037,-0.67334 -0.5545,-1.03732 -0.1507,-0.36398 -0.2646,-0.73917 -0.3414,-1.12555 -0.077,-0.38638 -0.1152,-0.77655 -0.1151,-1.1705 v -28 c -10e-5,-0.39398 0.038,-0.78418 0.1151,-1.17059 0.077,-0.38639 0.1907,-0.7616 0.3414,-1.12558 0.1508,-0.36399 0.3356,-0.70978 0.5545,-1.03733 0.2189,-0.32754 0.4676,-0.63061 0.7463,-0.90918 0.2786,-0.27856 0.5816,-0.52728 0.9091,-0.74618 0.3276,-0.21887 0.6734,-0.40369 1.0373,-0.55444 0.3639,-0.15079 0.7392,-0.26459 1.1255,-0.34144 C 1905.2157,440.03842 1905.606,440 1906,440 Z" /></g><g
           transform="matrix(2.9676895,0,0,2.9676895,-5403.6777,-100.11489)"
           id="g142"><text
             id="text146"
             style="font-variant:normal;font-weight:normal;font-size:12px;font-family:ArialMT;-inkscape-font-specification:ArialMT;writing-mode:lr-tb;fill:#000000;fill-opacity:1;fill-rule:nonzero;stroke:none"
             transform="translate(1907.375,457)"><tspan
               id="tspan144"
               y="0"
               x="0 8.0039062 14.677734 18.673828 22.007812 28.681641 32.677734 42.673828 45.345703 53.349609 60.023438 63.357422 66.023438 70.019531 78.023438 84.697266 91.371094 98.044922 101.37891 104.04492 110.71875 117.39258 120.72656 127.40039 133.40039 136.06641 142.74023 149.41406 152.53125 160.53516 169.86914 176.54297 185.87695 189.21094 199.20703 205.88086 212.55469 219.22852 221.89453 225.22852 228.5625">Perform Anti-Spoofing using YOLO model to</tspan></text>
<text
             id="text150"
             style="font-variant:normal;font-weight:normal;font-size:12px;font-family:ArialMT;-inkscape-font-specification:ArialMT;writing-mode:lr-tb;fill:#000000;fill-opacity:1;fill-rule:nonzero;stroke:none"
             transform="translate(1947.9688,472)"><tspan
               id="tspan148"
               y="0"
               x="0 6 8.6660156 15.339844 21.339844 27.339844 30.005859 33.339844 39.339844 42.673828 46.007812 52.681641 58.681641 65.355469 71.355469 74.689453 81.363281 87.363281 90.697266 94.693359 101.36719 108.04102 110.70703 114.04102 120.71484 124.71094 128.04492 131.37891 138.05273 144.05273 150.72656">classify faces as real or fake.</tspan></text>
</g><g
           transform="matrix(2.9676895,0,0,2.9676895,-5402.1938,-98.63105)"
           id="g152"><path
             id="path154"
             style="fill:none;stroke:#000000;stroke-width:1;stroke-linecap:butt;stroke-linejoin:miter;stroke-miterlimit:10;stroke-dasharray:none;stroke-opacity:1"
             d="m 2024.98,480 v 13.63" /><path
             id="path156"
             style="fill:#000000;fill-opacity:1;fill-rule:nonzero;stroke:none"
             d="m 2024.98,498.88 -3.5,-7 3.5,1.75 3.5,-1.75 z" /><path
             id="path158"
             style="fill:none;stroke:#000000;stroke-width:1;stroke-linecap:butt;stroke-linejoin:miter;stroke-miterlimit:10;stroke-dasharray:none;stroke-opacity:1"
             d="m 2024.98,498.88 -3.5,-7 3.5,1.75 3.5,-1.75 z" /><path
             id="path160"
             style="fill:none;stroke:#000000;stroke-width:1;stroke-linecap:butt;stroke-linejoin:miter;stroke-miterlimit:10;stroke-dasharray:none;stroke-opacity:1"
             d="M 1998.11,520 H 1865 V 400 h 28.62" /><path
             id="path162"
             style="fill:#000000;fill-opacity:1;fill-rule:nonzero;stroke:none"
             d="m 1898.87,400 -7,3.5 1.75,-3.5 -1.75,-3.5 z" /><path
             id="path164"
             style="fill:none;stroke:#000000;stroke-width:1;stroke-linecap:butt;stroke-linejoin:miter;stroke-miterlimit:10;stroke-dasharray:none;stroke-opacity:1"
             d="m 1898.87,400 -7,3.5 1.75,-3.5 -1.75,-3.5 z" /></g><g
           transform="matrix(2.9676895,0,0,2.9676895,-5403.6777,-100.11489)"
           id="g166"><path
             id="path168"
             style="fill:#ffffff;fill-opacity:1;fill-rule:nonzero;stroke:none"
             d="m 1969,505 h 25 v 13 h -25 z" /><text
             id="text172"
             style="font-variant:normal;font-weight:normal;font-size:11px;font-family:ArialMT;-inkscape-font-specification:ArialMT;writing-mode:lr-tb;fill:#000000;fill-opacity:1;fill-rule:nonzero;stroke:none"
             transform="translate(1969.2656,515)"><tspan
               id="tspan170"
               y="0"
               x="0 6.7192383 12.836914 18.336914">Fake</tspan></text>
</g><g
           transform="matrix(2.9676895,0,0,2.9676895,-5402.1938,-98.63105)"
           id="g174"><path
             id="path176"
             style="fill:none;stroke:#000000;stroke-width:1;stroke-linecap:butt;stroke-linejoin:miter;stroke-miterlimit:10;stroke-dasharray:none;stroke-opacity:1"
             d="M 2025,539.98999 V 550 v 3.63" /><path
             id="path178"
             style="fill:#000000;fill-opacity:1;fill-rule:nonzero;stroke:none"
             d="m 2025,558.88 -3.5,-7 3.5,1.75 3.5,-1.75 z" /><path
             id="path180"
             style="fill:none;stroke:#000000;stroke-width:1;stroke-linecap:butt;stroke-linejoin:miter;stroke-miterlimit:10;stroke-dasharray:none;stroke-opacity:1"
             d="m 2025,558.88 -3.5,-7 3.5,1.75 3.5,-1.75 z" /></g><g
           transform="matrix(2.9676895,0,0,2.9676895,-5403.6777,-100.11489)"
           id="g182"><path
             id="path184"
             style="fill:#ffffff;fill-opacity:1;fill-rule:nonzero;stroke:none"
             d="m 2034,539 h 23 v 13 h -23 z" /><text
             id="text188"
             style="font-variant:normal;font-weight:normal;font-size:11px;font-family:ArialMT;-inkscape-font-specification:ArialMT;writing-mode:lr-tb;fill:#000000;fill-opacity:1;fill-rule:nonzero;stroke:none"
             transform="translate(2034.1875,549)"><tspan
               id="tspan186"
               y="0"
               x="0 7.9438477 14.061523 20.179199">Real</tspan></text>
</g><g
           transform="matrix(2.9676895,0,0,2.9676895,-5402.1938,-98.63105)"
           id="g190"><path
             id="path192"
             style="fill:none;stroke:#000000;stroke-width:1;stroke-linecap:butt;stroke-linejoin:miter;stroke-miterlimit:10;stroke-dasharray:none;stroke-opacity:1"
             d="m 2011.55,510 13.44,-10 26.8701,20 -26.8701,20 -26.88,-20 z" /><path
             id="path194"
             style="fill:none;stroke:#000000;stroke-width:1;stroke-linecap:butt;stroke-linejoin:miter;stroke-miterlimit:10;stroke-dasharray:none;stroke-opacity:1"
             d="m 2325,370 v 30 h -168.6399" /><path
             id="path196"
             style="fill:#000000;fill-opacity:1;fill-rule:nonzero;stroke:none"
             d="m 2151.1101,400 7,-3.5 -1.75,3.5 1.75,3.5 z" /><path
             id="path198"
             style="fill:none;stroke:#000000;stroke-width:1;stroke-linecap:butt;stroke-linejoin:miter;stroke-miterlimit:10;stroke-dasharray:none;stroke-opacity:1"
             d="m 2151.1101,400 7,-3.5 -1.75,3.5 1.75,3.5 z" /><path
             id="path200"
             style="fill:none;stroke:#000000;stroke-width:1;stroke-linecap:butt;stroke-linejoin:miter;stroke-miterlimit:10;stroke-dasharray:none;stroke-opacity:1"
             d="m 2272.5,320 h 105 c 0.4924,0 0.98,0.048 1.4629,0.1441 0.4829,0.0961 0.9519,0.23835 1.4067,0.42679 0.4549,0.18845 0.8872,0.41947 1.2969,0.69306 0.4094,0.27359 0.7883,0.5845 1.1367,0.93274 0.3482,0.3482 0.659,0.72705 0.9326,1.13653 0.2735,0.40946 0.5044,0.84165 0.6932,1.29663 0.1882,0.45499 0.3305,0.92395 0.4267,1.40695 0.096,0.48301 0.1443,0.97074 0.1443,1.4632 v 35 c 0,0.49243 -0.048,0.98013 -0.1443,1.46313 -0.096,0.48301 -0.2385,0.952 -0.4267,1.40696 -0.1888,0.45495 -0.4197,0.88717 -0.6932,1.29666 -0.2736,0.40945 -0.5844,0.7883 -0.9326,1.13653 -0.3484,0.34821 -0.7273,0.65909 -1.1367,0.93268 -0.4097,0.27359 -0.842,0.50464 -1.2969,0.69309 -0.4548,0.18844 -0.9238,0.33072 -1.4067,0.42682 -0.4829,0.0961 -0.9705,0.1441 -1.4629,0.14413 h -105 c -0.4924,-3e-5 -0.9805,-0.0481 -1.4636,-0.14413 -0.4829,-0.0961 -0.9519,-0.23838 -1.407,-0.42682 -0.4548,-0.18845 -0.887,-0.41947 -1.2964,-0.69306 -0.4094,-0.27359 -0.7881,-0.5845 -1.1365,-0.93271 -0.3484,-0.34823 -0.6594,-0.72708 -0.9331,-1.13653 -0.2734,-0.40949 -0.5044,-0.84171 -0.6928,-1.29666 -0.1885,-0.45496 -0.3309,-0.92395 -0.4268,-1.40696 -0.096,-0.483 -0.1438,-0.9707 -0.1438,-1.46313 v -35 c 0,-0.49246 0.048,-0.98019 0.1438,-1.4632 0.096,-0.483 0.2383,-0.95196 0.4268,-1.40695 0.1884,-0.45498 0.4194,-0.8872 0.6928,-1.29666 0.2737,-0.40945 0.5847,-0.7883 0.9331,-1.1365 0.3484,-0.34824 0.7273,-0.65915 1.1368,-0.93274 0.4091,-0.27359 0.8413,-0.50461 1.2961,-0.69306 0.4551,-0.18844 0.9241,-0.33072 1.407,-0.42679 0.4831,-0.0961 0.9712,-0.1441 1.4636,-0.1441 z" /></g><g
           transform="matrix(2.9676895,0,0,2.9676895,-5403.6777,-100.11489)"
           id="g202"><text
             id="text206"
             style="font-variant:normal;font-weight:normal;font-size:12px;font-family:ArialMT;-inkscape-font-specification:ArialMT;writing-mode:lr-tb;fill:#000000;fill-opacity:1;fill-rule:nonzero;stroke:none"
             transform="translate(2267.0625,342)"><tspan
               id="tspan204"
               y="0"
               x="0 9.9960938 16.669922 22.669922 29.34375 32.677734 40.007812 46.681641 52.681641 59.355469 62.689453 65.355469 72.029297 75.363281 82.037109 85.371094 93.158203 95.824219 102.49805 109.17188">Move Face into Video</tspan></text>
<text
             id="text210"
             style="font-variant:normal;font-weight:normal;font-size:12px;font-family:ArialMT;-inkscape-font-specification:ArialMT;writing-mode:lr-tb;fill:#000000;fill-opacity:1;fill-rule:nonzero;stroke:none"
             transform="translate(2307.6563,357)"><tspan
               id="tspan208"
               y="0"
               x="0 7.3300781 11.326172 18 27.996094">Frame</tspan></text>
</g><g
           transform="matrix(2.9676895,0,0,2.9676895,-5402.1938,-98.63105)"
           id="g212"><path
             id="path214"
             style="fill:none;stroke:#000000;stroke-width:1;stroke-linecap:butt;stroke-linejoin:miter;stroke-miterlimit:10;stroke-dasharray:none;stroke-opacity:1"
             d="m 2025,415 v 20 -15 13.63" /><path
             id="path216"
             style="fill:#000000;fill-opacity:1;fill-rule:nonzero;stroke:none"
             d="m 2025,438.88 -3.5,-7 3.5,1.75 3.5,-1.75 z" /><path
             id="path218"
             style="fill:none;stroke:#000000;stroke-width:1;stroke-linecap:butt;stroke-linejoin:miter;stroke-miterlimit:10;stroke-dasharray:none;stroke-opacity:1"
             d="m 2025,438.88 -3.5,-7 3.5,1.75 3.5,-1.75 z" /><path
             id="path220"
             style="fill:none;stroke:#000000;stroke-width:1;stroke-linecap:butt;stroke-linejoin:miter;stroke-miterlimit:10;stroke-dasharray:none;stroke-opacity:1"
             d="m 1904.49,385 h 241 c 0.5964,0 1.1704,0.11417 1.7217,0.3425 0.5515,0.22836 1.0381,0.55353 1.4602,0.97549 0.4216,0.42194 0.7468,0.90857 0.9753,1.45987 0.2283,0.5513 0.3425,1.12537 0.3428,1.72214 v 21 c -3e-4,0.59671 -0.1145,1.17072 -0.3428,1.72205 -0.2285,0.5513 -0.5537,1.03796 -0.9753,1.45993 -0.4221,0.42196 -0.9087,0.7471 -1.4602,0.97546 -0.5513,0.22836 -1.1253,0.34253 -1.7217,0.34256 h -241 c -0.5969,-3e-5 -1.171,-0.1142 -1.7222,-0.34256 -0.5514,-0.22836 -1.0381,-0.5535 -1.4599,-0.97546 -0.422,-0.42197 -0.7472,-0.90863 -0.9756,-1.45993 -0.2284,-0.55133 -0.3424,-1.12534 -0.3423,-1.72205 v -21 c -10e-5,-0.59677 0.1139,-1.17084 0.3423,-1.72214 0.2284,-0.5513 0.5536,-1.03793 0.9756,-1.45987 0.4218,-0.42196 0.9085,-0.74713 1.4599,-0.97546 C 1903.319,385.11417 1903.8931,385 1904.49,385 Z" /></g><g
           transform="matrix(2.9676895,0,0,2.9676895,-5403.6777,-100.11489)"
           id="g222"><text
             id="text226"
             style="font-variant:normal;font-weight:normal;font-size:12px;font-family:ArialMT;-inkscape-font-specification:ArialMT;writing-mode:lr-tb;fill:#000000;fill-opacity:1;fill-rule:nonzero;stroke:none"
             transform="translate(1945.75,404)"><tspan
               id="tspan224"
               y="0"
               x="0 8.6660156 15.339844 22.013672 25.347656 32.021484 36.017578 42.691406 46.025391 53.355469 57.351562 64.025391 74.021484 80.695312 84.029297 87.363281 91.359375 98.033203 108.0293 111.36328 122.47266 129.14648 135.82031 141.82031 148.49414">Capture Frame from Webcam</tspan></text>
</g><g
           transform="matrix(2.9676895,0,0,2.9676895,-5402.1938,-98.63105)"
           id="g228"><path
             id="path230"
             style="fill:none;stroke:#000000;stroke-width:1;stroke-linecap:butt;stroke-linejoin:miter;stroke-miterlimit:10;stroke-dasharray:none;stroke-opacity:1"
             d="m 2025,590 v 20 -20.5 13.63" /><path
             id="path232"
             style="fill:#000000;fill-opacity:1;fill-rule:nonzero;stroke:none"
             d="m 2025,608.38 -3.5,-7 3.5,1.75 3.5,-1.75 z" /><path
             id="path234"
             style="fill:none;stroke:#000000;stroke-width:1;stroke-linecap:butt;stroke-linejoin:miter;stroke-miterlimit:10;stroke-dasharray:none;stroke-opacity:1"
             d="m 2025,608.38 -3.5,-7 3.5,1.75 3.5,-1.75 z" /><path
             id="path236"
             style="fill:none;stroke:#000000;stroke-width:1;stroke-linecap:butt;stroke-linejoin:miter;stroke-miterlimit:10;stroke-dasharray:none;stroke-opacity:1"
             d="m 1904.49,560 h 241 c 0.5964,0 1.1704,0.11414 1.7217,0.34247 0.5515,0.22839 1.0381,0.55359 1.4602,0.97552 0.4216,0.42194 0.7468,0.90851 0.9753,1.45984 0.2283,0.55133 0.3425,1.12537 0.3428,1.72217 v 21 c -3e-4,0.59674 -0.1145,1.17072 -0.3428,1.72198 -0.2285,0.55134 -0.5537,1.03797 -0.9753,1.45997 -0.4221,0.42187 -0.9087,0.74701 -1.4602,0.9754 -0.5513,0.22839 -1.1253,0.34259 -1.7217,0.34265 h -241 c -0.5969,-6e-5 -1.171,-0.11426 -1.7222,-0.34265 -0.5514,-0.22839 -1.0381,-0.55353 -1.4599,-0.9754 -0.422,-0.422 -0.7472,-0.90863 -0.9756,-1.45997 -0.2284,-0.55126 -0.3424,-1.12524 -0.3423,-1.72198 v -21 c -10e-5,-0.5968 0.1139,-1.17084 0.3423,-1.72217 0.2284,-0.55133 0.5536,-1.0379 0.9756,-1.45984 0.4218,-0.42193 0.9085,-0.74713 1.4599,-0.97552 C 1903.319,560.11414 1903.8931,560 1904.49,560 Z" /></g><g
           transform="matrix(2.9676895,0,0,2.9676895,-5403.6777,-100.11489)"
           id="g238"><text
             id="text242"
             style="font-variant:normal;font-weight:normal;font-size:12px;font-family:ArialMT;-inkscape-font-specification:ArialMT;writing-mode:lr-tb;fill:#000000;fill-opacity:1;fill-rule:nonzero;stroke:none"
             transform="translate(1930.625,579)"><tspan
               id="tspan240"
               y="0"
               x="0 8.6660156 15.339844 21.339844 24.005859 30.005859 36.679688 40.013672 47.34375 51.339844 58.013672 68.009766 74.683594 78.017578 81.351562 88.025391 92.021484 95.355469 102.68555 109.35938 115.35938 122.0332 125.36719 134.0332 140.70703 146.70703 153.38086 160.05469 166.72852 169.39453 172.72852 175.39453 182.06836">Resize Frame for Face Recognition</tspan></text>
</g><g
           transform="matrix(2.9676895,0,0,2.9676895,-5402.1938,-98.63105)"
           id="g244"><path
             id="path246"
             style="fill:none;stroke:#000000;stroke-width:1;stroke-linecap:butt;stroke-linejoin:miter;stroke-miterlimit:10;stroke-dasharray:none;stroke-opacity:1"
             d="m 2025,639.5 v 20 -19.5 l -0.01,13.63" /><path
             id="path248"
             style="fill:#000000;fill-opacity:1;fill-rule:nonzero;stroke:none"
             d="m 2024.99,658.88 -3.5,-7 3.5,1.75 3.5,-1.75 z" /><path
             id="path250"
             style="fill:none;stroke:#000000;stroke-width:1;stroke-linecap:butt;stroke-linejoin:miter;stroke-miterlimit:10;stroke-dasharray:none;stroke-opacity:1"
             d="m 2024.99,658.88 -3.5,-7 3.5,1.75 3.5,-1.75 z" /><path
             id="path252"
             style="fill:none;stroke:#000000;stroke-width:1;stroke-linecap:butt;stroke-linejoin:miter;stroke-miterlimit:10;stroke-dasharray:none;stroke-opacity:1"
             d="m 1904.5,609.5 h 241 c 0.5964,0 1.1704,0.1142 1.7219,0.34253 0.5513,0.22833 1.0379,0.55353 1.46,0.97546 0.4216,0.42194 0.7468,0.90857 0.9751,1.4599 0.2285,0.55127 0.3428,1.12531 0.343,1.72211 v 21 c -2e-4,0.59674 -0.1145,1.17072 -0.343,1.72205 -0.2283,0.55133 -0.5535,1.03796 -0.9751,1.4599 -0.4221,0.42193 -0.9087,0.74713 -1.46,0.97546 -0.5515,0.22839 -1.1255,0.34259 -1.7219,0.34259 h -241 c -0.5968,0 -1.1708,-0.1142 -1.7222,-0.34259 -0.5514,-0.22833 -1.0379,-0.55353 -1.4599,-0.97546 -0.422,-0.42194 -0.7472,-0.90857 -0.9756,-1.4599 C 1900.114,636.17072 1899.9999,635.59674 1900,635 v -21 c -10e-5,-0.5968 0.114,-1.17084 0.3423,-1.72211 0.2284,-0.55133 0.5536,-1.03796 0.9756,-1.4599 0.422,-0.42193 0.9085,-0.74713 1.4598,-0.97546 0.5514,-0.22833 1.1255,-0.34253 1.7223,-0.34253 z" /></g><g
           transform="matrix(2.9676895,0,0,2.9676895,-5403.6777,-100.11489)"
           id="g254"><text
             id="text258"
             style="font-variant:normal;font-weight:normal;font-size:12px;font-family:ArialMT;-inkscape-font-specification:ArialMT;writing-mode:lr-tb;fill:#000000;fill-opacity:1;fill-rule:nonzero;stroke:none"
             transform="translate(1955.9531,629)"><tspan
               id="tspan256"
               y="0"
               x="0 8.6660156 15.339844 18.673828 25.347656 31.347656 34.681641 38.015625 44.689453 51.363281 58.037109 61.371094 69.375 76.048828 82.048828 88.722656 95.396484 102.07031 105.4043 112.73438 119.4082 125.4082 132.08203">Detect and Encode Faces</tspan></text>
</g><g
           transform="matrix(2.9676895,0,0,2.9676895,-5402.1938,-98.63105)"
           id="g260"><path
             id="path262"
             style="fill:none;stroke:#000000;stroke-width:1;stroke-linecap:butt;stroke-linejoin:miter;stroke-miterlimit:10;stroke-dasharray:none;stroke-opacity:1"
             d="m 1904.49,660 h 241 c 0.5964,0 1.1704,0.11414 1.7217,0.34247 0.5515,0.22833 1.0381,0.55347 1.4602,0.97546 0.4216,0.42194 0.7468,0.90857 0.9753,1.4599 0.2283,0.55133 0.3425,1.12537 0.3428,1.72217 v 21 c -3e-4,0.59674 -0.1145,1.17072 -0.3428,1.72198 -0.2285,0.55134 -0.5537,1.03797 -0.9753,1.45997 -0.4221,0.42193 -0.9087,0.74707 -1.4602,0.97546 -0.5513,0.22833 -1.1253,0.34253 -1.7217,0.34259 h -241 c -0.5969,-6e-5 -1.171,-0.11426 -1.7222,-0.34259 -0.5514,-0.22839 -1.0381,-0.55353 -1.4599,-0.97546 -0.422,-0.422 -0.7472,-0.90863 -0.9756,-1.45997 -0.2284,-0.55126 -0.3424,-1.12524 -0.3423,-1.72198 v -21 c -10e-5,-0.5968 0.1139,-1.17084 0.3423,-1.72217 0.2284,-0.55133 0.5536,-1.03796 0.9756,-1.4599 0.4218,-0.42199 0.9085,-0.74713 1.4599,-0.97546 C 1903.319,660.11414 1903.8931,660 1904.49,660 Z" /></g><g
           transform="matrix(2.9676895,0,0,2.9676895,-5403.6777,-100.11489)"
           id="g264"><text
             id="text268"
             style="font-variant:normal;font-weight:normal;font-size:12px;font-family:ArialMT;-inkscape-font-specification:ArialMT;writing-mode:lr-tb;fill:#000000;fill-opacity:1;fill-rule:nonzero;stroke:none"
             transform="translate(1905.9375,679)"><tspan
               id="tspan266"
               y="0"
               x="0 9.9960938 16.669922 20.003906 26.003906 32.677734 36.011719 44.677734 51.351562 54.685547 61.359375 67.359375 70.693359 77.367188 84.041016 87.375 94.705078 101.37891 107.37891 114.05273 117.38672 126.05273 128.71875 132.05273 138.72656 142.06055 150.06445 156.73828 163.41211 172.07812 178.75195 182.08594 190.08984 196.76367 202.76367 209.4375 216.11133 218.77734 225.45117 232.125">Match Detected Face with Known Encodings</tspan></text>
</g><g
           transform="matrix(2.9676895,0,0,2.9676895,-5402.1938,-98.63105)"
           id="g270"><path
             id="path272"
             style="fill:none;stroke:#000000;stroke-width:1;stroke-linecap:butt;stroke-linejoin:miter;stroke-miterlimit:10;stroke-dasharray:none;stroke-opacity:1"
             d="m 2024.98,690 v 13.63" /><path
             id="path274"
             style="fill:#000000;fill-opacity:1;fill-rule:nonzero;stroke:none"
             d="m 2024.98,708.88 -3.5,-7 3.5,1.75 3.5,-1.75 z" /><path
             id="path276"
             style="fill:none;stroke:#000000;stroke-width:1;stroke-linecap:butt;stroke-linejoin:miter;stroke-miterlimit:10;stroke-dasharray:none;stroke-opacity:1"
             d="m 2024.98,708.88 -3.5,-7 3.5,1.75 3.5,-1.75 z" /><path
             id="path278"
             style="fill:none;stroke:#000000;stroke-width:1;stroke-linecap:butt;stroke-linejoin:miter;stroke-miterlimit:10;stroke-dasharray:none;stroke-opacity:1"
             d="M 1998.11,730 H 1865 V 526.37" /><path
             id="path280"
             style="fill:#000000;fill-opacity:1;fill-rule:nonzero;stroke:none"
             d="m 1865,521.12 3.5,7 -3.5,-1.75 -3.5,1.75 z" /><path
             id="path282"
             style="fill:none;stroke:#000000;stroke-width:1;stroke-linecap:butt;stroke-linejoin:miter;stroke-miterlimit:10;stroke-dasharray:none;stroke-opacity:1"
             d="m 1865,521.12 3.5,7 -3.5,-1.75 -3.5,1.75 z" /></g><g
           transform="matrix(2.9676895,0,0,2.9676895,-5403.6777,-100.11489)"
           id="g284"><path
             id="path286"
             style="fill:#ffffff;fill-opacity:1;fill-rule:nonzero;stroke:none"
             d="m 1945,716 h 47 v 13 h -47 z" /><text
             id="text290"
             style="font-variant:normal;font-weight:normal;font-size:11px;font-family:ArialMT;-inkscape-font-specification:ArialMT;writing-mode:lr-tb;fill:#000000;fill-opacity:1;fill-rule:nonzero;stroke:none"
             transform="translate(1944.9688,726)"><tspan
               id="tspan288"
               y="0"
               x="0 7.9438477 14.061523 17.117676 26.280762 32.398438 35.45459 40.95459">No Match</tspan></text>
</g><g
           transform="matrix(2.9676895,0,0,2.9676895,-5402.1938,-98.63105)"
           id="g292"><path
             id="path294"
             style="fill:none;stroke:#000000;stroke-width:1;stroke-linecap:butt;stroke-linejoin:miter;stroke-miterlimit:10;stroke-dasharray:none;stroke-opacity:1"
             d="M 2025,749.98999 V 760 v 3.63" /><path
             id="path296"
             style="fill:#000000;fill-opacity:1;fill-rule:nonzero;stroke:none"
             d="m 2025,768.88 -3.5,-7 3.5,1.75 3.5,-1.75 z" /><path
             id="path298"
             style="fill:none;stroke:#000000;stroke-width:1;stroke-linecap:butt;stroke-linejoin:miter;stroke-miterlimit:10;stroke-dasharray:none;stroke-opacity:1"
             d="m 2025,768.88 -3.5,-7 3.5,1.75 3.5,-1.75 z" /></g><g
           transform="matrix(2.9676895,0,0,2.9676895,-5403.6777,-100.11489)"
           id="g300"><path
             id="path302"
             style="fill:#ffffff;fill-opacity:1;fill-rule:nonzero;stroke:none"
             d="m 2035,749 h 29 v 13 h -29 z" /><text
             id="text306"
             style="font-variant:normal;font-weight:normal;font-size:11px;font-family:ArialMT;-inkscape-font-specification:ArialMT;writing-mode:lr-tb;fill:#000000;fill-opacity:1;fill-rule:nonzero;stroke:none"
             transform="translate(2034.5156,759)"><tspan
               id="tspan304"
               y="0"
               x="0 9.1630859 15.280762 18.336914 23.836914">Match</tspan></text>
</g><g
           transform="matrix(2.9676895,0,0,2.9676895,-5402.1938,-98.63105)"
           id="g308"><path
             id="path310"
             style="fill:none;stroke:#000000;stroke-width:1;stroke-linecap:butt;stroke-linejoin:miter;stroke-miterlimit:10;stroke-dasharray:none;stroke-opacity:1"
             d="m 2011.55,720 13.44,-10 26.8701,20 -26.8701,20 -26.88,-20 z" /><path
             id="path312"
             style="fill:none;stroke:#000000;stroke-width:1;stroke-linecap:butt;stroke-linejoin:miter;stroke-miterlimit:10;stroke-dasharray:none;stroke-opacity:1"
             d="m 2025,800 v 20 -20.5 l -0.01,13.63" /><path
             id="path314"
             style="fill:#000000;fill-opacity:1;fill-rule:nonzero;stroke:none"
             d="m 2024.99,818.38 -3.5,-7 3.5,1.75 3.5,-1.75 z" /><path
             id="path316"
             style="fill:none;stroke:#000000;stroke-width:1;stroke-linecap:butt;stroke-linejoin:miter;stroke-miterlimit:10;stroke-dasharray:none;stroke-opacity:1"
             d="m 2024.99,818.38 -3.5,-7 3.5,1.75 3.5,-1.75 z" /><path
             id="path318"
             style="fill:none;stroke:#000000;stroke-width:1;stroke-linecap:butt;stroke-linejoin:miter;stroke-miterlimit:10;stroke-dasharray:none;stroke-opacity:1"
             d="m 1904.49,770 h 241 c 0.5964,0 1.1704,0.11414 1.7217,0.34241 0.5515,0.22839 1.0381,0.55359 1.4602,0.97552 0.4216,0.42194 0.7468,0.90857 0.9753,1.4599 0.2283,0.55133 0.3425,1.12537 0.3428,1.72217 v 21 c -3e-4,0.59668 -0.1145,1.17065 -0.3428,1.72198 -0.2285,0.55127 -0.5537,1.03791 -0.9753,1.45997 -0.4221,0.42193 -0.9087,0.74707 -1.4602,0.9754 -0.5513,0.22833 -1.1253,0.34259 -1.7217,0.34265 h -241 c -0.5969,-6e-5 -1.171,-0.11432 -1.7222,-0.34271 -0.5514,-0.22833 -1.0381,-0.55341 -1.4599,-0.97534 -0.422,-0.42206 -0.7472,-0.9087 -0.9756,-1.45997 -0.2284,-0.55133 -0.3424,-1.1253 -0.3423,-1.72198 v -21 c -10e-5,-0.5968 0.1139,-1.1709 0.3423,-1.72223 0.2284,-0.55133 0.5536,-1.0379 0.9756,-1.45984 0.4218,-0.42193 0.9085,-0.74713 1.4599,-0.97546 C 1903.319,770.11414 1903.8931,770 1904.49,770 Z" /></g><g
           transform="matrix(2.9676895,0,0,2.9676895,-5403.6777,-100.11489)"
           id="g320"><text
             id="text324"
             style="font-variant:normal;font-weight:normal;font-size:12px;font-family:ArialMT;-inkscape-font-specification:ArialMT;writing-mode:lr-tb;fill:#000000;fill-opacity:1;fill-rule:nonzero;stroke:none"
             transform="translate(1909.2656,789)"><tspan
               id="tspan322"
               y="0"
               x="0 7.3300781 14.003906 17.337891 23.337891 30.011719 33.345703 41.349609 44.683594 51.357422 58.03125 64.705078 71.378906 74.712891 78.046875 86.050781 92.724609 96.720703 102.7207 109.39453 116.06836 122.74219 125.4082 128.74219 137.4082 144.08203 147.41602 154.08984 157.42383 160.75781 164.75391 171.42773 181.42383 184.75781 192.08789 194.75391 198.75 205.42383 212.09766 218.77148 224.77148">Fetch Student Personal Data from Firebase</tspan></text>
</g><g
           transform="matrix(2.9676895,0,0,2.9676895,-5402.1938,-98.63105)"
           id="g326"><path
             id="path328"
             style="fill:none;stroke:#000000;stroke-width:1;stroke-linecap:butt;stroke-linejoin:miter;stroke-miterlimit:10;stroke-dasharray:none;stroke-opacity:1"
             d="m 2025,849.5 v 20 -20 l -0.01,13.63" /><path
             id="path330"
             style="fill:#000000;fill-opacity:1;fill-rule:nonzero;stroke:none"
             d="m 2024.99,868.38 -3.5,-7 3.5,1.75 3.5,-1.75 z" /><path
             id="path332"
             style="fill:none;stroke:#000000;stroke-width:1;stroke-linecap:butt;stroke-linejoin:miter;stroke-miterlimit:10;stroke-dasharray:none;stroke-opacity:1"
             d="m 2024.99,868.38 -3.5,-7 3.5,1.75 3.5,-1.75 z" /><path
             id="path334"
             style="fill:none;stroke:#000000;stroke-width:1;stroke-linecap:butt;stroke-linejoin:miter;stroke-miterlimit:10;stroke-dasharray:none;stroke-opacity:1"
             d="m 1904.49,819.5 h 241 c 0.5964,0 1.1704,0.11414 1.7217,0.34247 0.5515,0.22833 1.0381,0.55353 1.4602,0.97552 0.4216,0.42188 0.7468,0.90851 0.9753,1.45984 0.2283,0.55133 0.3425,1.12543 0.3428,1.72217 v 21 c -3e-4,0.59674 -0.1145,1.17072 -0.3428,1.72205 -0.2285,0.55127 -0.5537,1.0379 -0.9753,1.4599 -0.4221,0.42193 -0.9087,0.74707 -1.4602,0.9754 -0.5513,0.22839 -1.1253,0.34259 -1.7217,0.34265 h -241 c -0.5969,-6e-5 -1.171,-0.11426 -1.7222,-0.34265 -0.5514,-0.22833 -1.0381,-0.55347 -1.4599,-0.9754 -0.422,-0.422 -0.7472,-0.90863 -0.9756,-1.4599 -0.2284,-0.55133 -0.3424,-1.12531 -0.3423,-1.72205 v -21 c -10e-5,-0.59674 0.1139,-1.17084 0.3423,-1.72217 0.2284,-0.55133 0.5536,-1.03796 0.9756,-1.45984 0.4218,-0.42199 0.9085,-0.74719 1.4599,-0.97552 0.5512,-0.22833 1.1253,-0.34247 1.7222,-0.34247 z" /></g><g
           transform="matrix(2.9676895,0,0,2.9676895,-5403.6777,-100.11489)"
           id="g336"><text
             id="text340"
             style="font-variant:normal;font-weight:normal;font-size:12px;font-family:ArialMT;-inkscape-font-specification:ArialMT;writing-mode:lr-tb;fill:#000000;fill-opacity:1;fill-rule:nonzero;stroke:none"
             transform="translate(1947.4531,839)"><tspan
               id="tspan338"
               y="0"
               x="0 8.6660156 15.339844 22.013672 28.6875 32.021484 38.695312 42.029297 50.033203 53.367188 60.041016 66.714844 73.388672 80.0625 83.396484 85.6875 91.6875 94.359375 102.36328 105.69727 109.03125 115.70508 122.37891 129.05273 135.72656 142.40039 148.40039">Update Student's Attendance</tspan></text>
</g><g
           transform="matrix(2.9676895,0,0,2.9676895,-5402.1938,-98.63105)"
           id="g342"><path
             id="path344"
             style="fill:none;stroke:#000000;stroke-width:1;stroke-linecap:butt;stroke-linejoin:miter;stroke-miterlimit:10;stroke-dasharray:none;stroke-opacity:1"
             d="m 2149.99,884.5 h 57.51 l 51.1299,0.09" /><path
             id="path346"
             style="fill:#000000;fill-opacity:1;fill-rule:nonzero;stroke:none"
             d="m 2263.8799,884.59998 -7,3.49005 1.75,-3.5 -1.74,-3.5 z" /><path
             id="path348"
             style="fill:none;stroke:#000000;stroke-width:1;stroke-linecap:butt;stroke-linejoin:miter;stroke-miterlimit:10;stroke-dasharray:none;stroke-opacity:1"
             d="m 2263.8799,884.59998 -7,3.49005 1.75,-3.5 -1.74,-3.5 z" /><path
             id="path350"
             style="fill:none;stroke:#000000;stroke-width:1;stroke-linecap:butt;stroke-linejoin:miter;stroke-miterlimit:10;stroke-dasharray:none;stroke-opacity:1"
             d="m 1904.49,869.5 h 241 c 0.5964,0 1.1704,0.11414 1.7217,0.34241 0.5515,0.22845 1.0381,0.55365 1.4602,0.97558 0.4216,0.42194 0.7468,0.90851 0.9753,1.45984 0.2283,0.55127 0.3425,1.12531 0.3428,1.72217 v 21 c -3e-4,0.59668 -0.1145,1.17065 -0.3428,1.72198 -0.2285,0.55127 -0.5537,1.03791 -0.9753,1.4599 -0.4221,0.42194 -0.9087,0.74708 -1.4602,0.97541 -0.5513,0.22839 -1.1253,0.34265 -1.7217,0.34271 h -241 c -0.5969,-6e-5 -1.171,-0.11432 -1.7222,-0.34271 -0.5514,-0.22833 -1.0381,-0.55347 -1.4599,-0.97541 -0.422,-0.42199 -0.7472,-0.90863 -0.9756,-1.4599 -0.2284,-0.55133 -0.3424,-1.1253 -0.3423,-1.72198 v -21 c -10e-5,-0.59686 0.1139,-1.1709 0.3423,-1.72223 0.2284,-0.55127 0.5536,-1.03784 0.9756,-1.45978 0.4218,-0.42193 0.9085,-0.74713 1.4599,-0.97552 0.5512,-0.22833 1.1253,-0.34247 1.7222,-0.34247 z" /></g><g
           transform="matrix(2.9676895,0,0,2.9676895,-5403.6777,-100.11489)"
           id="g352"><text
             id="text356"
             style="font-variant:normal;font-weight:normal;font-size:12px;font-family:ArialMT;-inkscape-font-specification:ArialMT;writing-mode:lr-tb;fill:#000000;fill-opacity:1;fill-rule:nonzero;stroke:none"
             transform="translate(1942.9531,889)"><tspan
               id="tspan354"
               y="0"
               x="0 8.6660156 11.332031 17.332031 24.005859 26.671875 33.345703 39.345703 42.679688 51.345703 54.679688 58.013672 66.679688 69.345703 72.679688 79.353516 82.6875 90.691406 94.025391 100.69922 107.37305 114.04688 120.7207 124.05469 127.38867 136.05469 142.72852 146.0625 152.73633 155.40234 158.06836">Display UI with Student Details</tspan></text>
</g><g
           transform="matrix(2.9676895,0,0,2.9676895,-5402.1938,-98.63105)"
           id="g358"><path
             id="path360"
             style="fill:none;stroke:#000000;stroke-width:1;stroke-linecap:butt;stroke-linejoin:miter;stroke-miterlimit:10;stroke-dasharray:none;stroke-opacity:1"
             d="m 2024.98,899.5 v 13.63" /><path
             id="path362"
             style="fill:#000000;fill-opacity:1;fill-rule:nonzero;stroke:none"
             d="m 2024.98,918.38 -3.5,-7 3.5,1.75 3.5,-1.75 z" /><path
             id="path364"
             style="fill:none;stroke:#000000;stroke-width:1;stroke-linecap:butt;stroke-linejoin:miter;stroke-miterlimit:10;stroke-dasharray:none;stroke-opacity:1"
             d="m 2024.98,918.38 -3.5,-7 3.5,1.75 3.5,-1.75 z" /><path
             id="path366"
             style="fill:none;stroke:#000000;stroke-width:1;stroke-linecap:butt;stroke-linejoin:miter;stroke-miterlimit:10;stroke-dasharray:none;stroke-opacity:1"
             d="M 2025,959.48999 V 969.5 v 3.63" /><path
             id="path368"
             style="fill:#000000;fill-opacity:1;fill-rule:nonzero;stroke:none"
             d="m 2025,978.38 -3.5,-7 3.5,1.75 3.5,-1.75 z" /><path
             id="path370"
             style="fill:none;stroke:#000000;stroke-width:1;stroke-linecap:butt;stroke-linejoin:miter;stroke-miterlimit:10;stroke-dasharray:none;stroke-opacity:1"
             d="m 2025,978.38 -3.5,-7 3.5,1.75 3.5,-1.75 z" /></g><g
           transform="matrix(2.9676895,0,0,2.9676895,-5403.6777,-100.11489)"
           id="g372"><path
             id="path374"
             style="fill:#ffffff;fill-opacity:1;fill-rule:nonzero;stroke:none"
             d="m 2037,959 h 19 v 13 h -19 z" /><text
             id="text378"
             style="font-variant:normal;font-weight:normal;font-size:11px;font-family:ArialMT;-inkscape-font-specification:ArialMT;writing-mode:lr-tb;fill:#000000;fill-opacity:1;fill-rule:nonzero;stroke:none"
             transform="translate(2037.3281,969)"><tspan
               id="tspan376"
               y="0"
               x="0 7.3369141 12.836914 15.280762">Exit</tspan></text>
</g><g
           transform="matrix(2.9676895,0,0,2.9676895,-5402.1938,-98.63105)"
           id="g380"><path
             id="path382"
             style="fill:none;stroke:#000000;stroke-width:1;stroke-linecap:butt;stroke-linejoin:miter;stroke-miterlimit:10;stroke-dasharray:none;stroke-opacity:1"
             d="M 1998.11,939.5 H 1865 l -0.48,-203.13" /><path
             id="path384"
             style="fill:#000000;fill-opacity:1;fill-rule:nonzero;stroke:none"
             d="m 1864.5,731.12 3.52,6.98999 -3.5,-1.73999 -3.5,1.76 z" /><path
             id="path386"
             style="fill:none;stroke:#000000;stroke-width:1;stroke-linecap:butt;stroke-linejoin:miter;stroke-miterlimit:10;stroke-dasharray:none;stroke-opacity:1"
             d="m 1864.5,731.12 3.52,6.98999 -3.5,-1.73999 -3.5,1.76 z" /></g><g
           transform="matrix(2.9676895,0,0,2.9676895,-5403.6777,-100.11489)"
           id="g388"><path
             id="path390"
             style="fill:#ffffff;fill-opacity:1;fill-rule:nonzero;stroke:none"
             d="m 1947,925 h 45 v 13 h -45 z" /><text
             id="text394"
             style="font-variant:normal;font-weight:normal;font-size:11px;font-family:ArialMT;-inkscape-font-specification:ArialMT;writing-mode:lr-tb;fill:#000000;fill-opacity:1;fill-rule:nonzero;stroke:none"
             transform="translate(1947.4844,935)"><tspan
               id="tspan392"
               y="0"
               x="0 7.9438477 14.061523 20.179199 23.235352 25.679199 31.796875 37.914551">Continue</tspan></text>
</g><g
           transform="matrix(2.9676895,0,0,2.9676895,-5402.1938,-98.63105)"
           id="g396"><path
             id="path398"
             style="fill:none;stroke:#000000;stroke-width:1;stroke-linecap:butt;stroke-linejoin:miter;stroke-miterlimit:10;stroke-dasharray:none;stroke-opacity:1"
             d="m 2011.55,929.5 13.44,-10 26.8701,20 -26.8701,20 -26.88,-20 z" /><path
             id="path400"
             style="fill:#ffffff;fill-opacity:1;fill-rule:nonzero;stroke:none"
             d="m 2040,994.5 c -10e-5,0.9848 -0.096,1.96021 -0.2885,2.92621 -0.1921,0.966 -0.4766,1.90393 -0.8535,2.81379 -0.3769,0.91 -0.839,1.7744 -1.3861,2.5934 -0.5472,0.8189 -1.169,1.5766 -1.8655,2.2731 -0.6965,0.6964 -1.4542,1.3182 -2.2731,1.8654 -0.819,0.5472 -1.6834,1.0092 -2.5933,1.3861 -0.9099,0.3769 -1.8479,0.6615 -2.8139,0.8537 -0.9659,0.1921 -1.9412,0.2882 -2.9261,0.2883 -0.985,-10e-5 -1.9606,-0.096 -2.9265,-0.2884 -0.966,-0.1922 -1.9039,-0.4767 -2.814,-0.8536 -0.9099,-0.3769 -1.7743,-0.839 -2.5932,-1.3861 -0.8189,-0.5472 -1.5766,-1.169 -2.273,-1.8654 -0.6965,-0.6965 -1.3183,-1.4542 -1.8656,-2.2731 -0.5472,-0.819 -1.0094,-1.6834 -1.3862,-2.5934 -0.377,-0.90986 -0.6615,-1.84779 -0.8535,-2.81373 -0.1921,-0.966 -0.2881,-1.94147 -0.288,-2.92627 -10e-5,-0.98499 0.096,-1.96051 0.288,-2.92651 0.192,-0.96601 0.4765,-1.90393 0.8535,-2.81391 0.3768,-0.90991 0.839,-1.77435 1.3862,-2.59332 0.5473,-0.81891 1.1691,-1.57654 1.8656,-2.27295 0.6964,-0.69647 1.4541,-1.3183 2.273,-1.86548 0.8189,-0.54718 1.6833,-1.00921 2.5932,-1.38611 0.9101,-0.37689 1.848,-0.66137 2.814,-0.85357 0.9659,-0.19208 1.9415,-0.28815 2.9265,-0.28815 0.9849,0 1.9602,0.0961 2.9261,0.28815 0.966,0.19214 1.904,0.47662 2.8139,0.85351 0.9099,0.37689 1.7743,0.83899 2.5933,1.38617 0.8189,0.54718 1.5766,1.16901 2.2731,1.86548 0.6965,0.69641 1.3182,1.4541 1.8654,2.27301 0.5472,0.81891 1.0093,1.68335 1.3862,2.59332 0.3769,0.90992 0.6614,1.84784 0.8537,2.81385 0.1921,0.966 0.2882,1.94152 0.2883,2.92651 z" /><path
             id="path402"
             style="fill:none;stroke:#000000;stroke-width:1;stroke-linecap:butt;stroke-linejoin:miter;stroke-miterlimit:10;stroke-dasharray:none;stroke-opacity:1"
             d="m 2040,994.5 c -10e-5,0.9848 -0.096,1.96021 -0.2885,2.92621 -0.1921,0.966 -0.4766,1.90393 -0.8535,2.81379 -0.3769,0.91 -0.839,1.7744 -1.3861,2.5934 -0.5472,0.8189 -1.169,1.5766 -1.8655,2.2731 -0.6965,0.6964 -1.4542,1.3182 -2.2731,1.8654 -0.819,0.5472 -1.6834,1.0092 -2.5933,1.3861 -0.9099,0.3769 -1.8479,0.6615 -2.8139,0.8537 -0.9659,0.1921 -1.9412,0.2882 -2.9261,0.2883 -0.985,-10e-5 -1.9606,-0.096 -2.9265,-0.2884 -0.966,-0.1922 -1.9039,-0.4767 -2.814,-0.8536 -0.9099,-0.3769 -1.7743,-0.839 -2.5932,-1.3861 -0.8189,-0.5472 -1.5766,-1.169 -2.273,-1.8654 -0.6965,-0.6965 -1.3183,-1.4542 -1.8656,-2.2731 -0.5472,-0.819 -1.0094,-1.6834 -1.3862,-2.5934 -0.377,-0.90986 -0.6615,-1.84779 -0.8535,-2.81373 -0.1921,-0.966 -0.2881,-1.94147 -0.288,-2.92627 -10e-5,-0.98499 0.096,-1.96051 0.288,-2.92651 0.192,-0.96601 0.4765,-1.90393 0.8535,-2.81391 0.3768,-0.90991 0.839,-1.77435 1.3862,-2.59332 0.5473,-0.81891 1.1691,-1.57654 1.8656,-2.27295 0.6964,-0.69647 1.4541,-1.3183 2.273,-1.86548 0.8189,-0.54718 1.6833,-1.00921 2.5932,-1.38611 0.9101,-0.37689 1.848,-0.66137 2.814,-0.85357 0.9659,-0.19208 1.9415,-0.28815 2.9265,-0.28815 0.9849,0 1.9602,0.0961 2.9261,0.28815 0.966,0.19214 1.904,0.47662 2.8139,0.85351 0.9099,0.37689 1.7743,0.83899 2.5933,1.38617 0.8189,0.54718 1.5766,1.16901 2.2731,1.86548 0.6965,0.69641 1.3182,1.4541 1.8654,2.27301 0.5472,0.81891 1.0093,1.68335 1.3862,2.59332 0.3769,0.90992 0.6614,1.84784 0.8537,2.81385 0.1921,0.966 0.2882,1.94152 0.2883,2.92651 z" /><path
             id="path404"
             style="fill:#000000;fill-opacity:1;fill-rule:nonzero;stroke:none"
             d="m 2035,994.5 c -10e-5,0.65656 -0.064,1.30682 -0.1923,1.95081 -0.1281,0.64398 -0.3178,1.26928 -0.5691,1.87591 -0.2512,0.60663 -0.5592,1.18292 -0.924,1.72888 -0.3648,0.546 -0.7793,1.0511 -1.2436,1.5154 -0.4643,0.4643 -0.9696,0.8789 -1.5156,1.2437 -0.546,0.3647 -1.1223,0.6727 -1.7289,0.924 -0.6065,0.2513 -1.2319,0.441 -1.8758,0.5692 -0.6439,0.1281 -1.2941,0.1921 -1.9507,0.1921 -0.6566,0 -1.307,-0.064 -1.951,-0.1921 -0.6441,-0.1281 -1.2695,-0.3179 -1.876,-0.5691 -0.6067,-0.2513 -1.183,-0.5594 -1.7288,-0.9242 -0.5459,-0.3648 -1.051,-0.7793 -1.5152,-1.2436 -0.4643,-0.4643 -0.8788,-0.9694 -1.2437,-1.5154 -0.3649,-0.54596 -0.6728,-1.12225 -0.9242,-1.72888 -0.2513,-0.60663 -0.4412,-1.23193 -0.5692,-1.87591 -0.1281,-0.64399 -0.192,-1.29425 -0.1919,-1.95081 -10e-5,-0.65668 0.064,-1.30701 0.1919,-1.95099 0.128,-0.64398 0.3177,-1.26935 0.5691,-1.87598 0.2513,-0.60668 0.5594,-1.18298 0.9243,-1.72894 0.3649,-0.54596 0.7794,-1.05102 1.2437,-1.51526 0.4642,-0.46429 0.9693,-0.87884 1.5151,-1.24365 0.5459,-0.36475 1.1222,-0.67273 1.7289,-0.92401 0.6065,-0.25128 1.2319,-0.44098 1.876,-0.56903 0.644,-0.12811 1.2944,-0.19214 1.951,-0.19214 0.6566,0 1.3069,0.064 1.9508,0.19214 0.6439,0.12805 1.2692,0.31775 1.8757,0.56903 0.6066,0.25128 1.183,0.55926 1.729,0.92401 0.5461,0.36481 1.0512,0.77936 1.5155,1.24365 0.4643,0.46424 0.8788,0.96936 1.2437,1.51532 0.3647,0.5459 0.6727,1.1222 0.9239,1.72888 0.2513,0.60663 0.441,1.232 0.569,1.87598 0.1282,0.64398 0.1923,1.29431 0.1924,1.95099 z" /><path
             id="path406"
             style="fill:none;stroke:#000000;stroke-width:1;stroke-linecap:butt;stroke-linejoin:miter;stroke-miterlimit:10;stroke-dasharray:none;stroke-opacity:1"
             d="m 2035,994.5 c -10e-5,0.65656 -0.064,1.30682 -0.1923,1.95081 -0.1281,0.64398 -0.3178,1.26928 -0.5691,1.87591 -0.2512,0.60663 -0.5592,1.18292 -0.924,1.72888 -0.3648,0.546 -0.7793,1.0511 -1.2436,1.5154 -0.4643,0.4643 -0.9696,0.8789 -1.5156,1.2437 -0.546,0.3647 -1.1223,0.6727 -1.7289,0.924 -0.6065,0.2513 -1.2319,0.441 -1.8758,0.5692 -0.6439,0.1281 -1.2941,0.1921 -1.9507,0.1921 -0.6566,0 -1.307,-0.064 -1.951,-0.1921 -0.6441,-0.1281 -1.2695,-0.3179 -1.876,-0.5691 -0.6067,-0.2513 -1.183,-0.5594 -1.7288,-0.9242 -0.5459,-0.3648 -1.051,-0.7793 -1.5152,-1.2436 -0.4643,-0.4643 -0.8788,-0.9694 -1.2437,-1.5154 -0.3649,-0.54596 -0.6728,-1.12225 -0.9242,-1.72888 -0.2513,-0.60663 -0.4412,-1.23193 -0.5692,-1.87591 -0.1281,-0.64399 -0.192,-1.29425 -0.1919,-1.95081 -10e-5,-0.65668 0.064,-1.30701 0.1919,-1.95099 0.128,-0.64398 0.3177,-1.26935 0.5691,-1.87598 0.2513,-0.60668 0.5594,-1.18298 0.9243,-1.72894 0.3649,-0.54596 0.7794,-1.05102 1.2437,-1.51526 0.4642,-0.46429 0.9693,-0.87884 1.5151,-1.24365 0.5459,-0.36475 1.1222,-0.67273 1.7289,-0.92401 0.6065,-0.25128 1.2319,-0.44098 1.876,-0.56903 0.644,-0.12811 1.2944,-0.19214 1.951,-0.19214 0.6566,0 1.3069,0.064 1.9508,0.19214 0.6439,0.12805 1.2692,0.31775 1.8757,0.56903 0.6066,0.25128 1.183,0.55926 1.729,0.92401 0.5461,0.36481 1.0512,0.77936 1.5155,1.24365 0.4643,0.46424 0.8788,0.96936 1.2437,1.51532 0.3647,0.5459 0.6727,1.1222 0.9239,1.72888 0.2513,0.60663 0.441,1.232 0.569,1.87598 0.1282,0.64398 0.1923,1.29431 0.1924,1.95099 z" /><path
             id="path408"
             style="fill:none;stroke:#000000;stroke-width:1;stroke-linecap:butt;stroke-linejoin:miter;stroke-miterlimit:10;stroke-dasharray:none;stroke-opacity:1"
             d="m 2272.5701,859.25 h 104.8598 c 0.4969,0 0.989,0.0485 1.4766,0.14545 0.4873,0.0969 0.9604,0.24048 1.4197,0.43072 0.4592,0.19025 0.8955,0.4234 1.3088,0.69959 0.4133,0.27618 0.7959,0.59002 1.1475,0.94146 0.3513,0.35144 0.6653,0.73377 0.9416,1.14704 0.2761,0.41327 0.5091,0.84955 0.6992,1.30877 0.1902,0.45917 0.3338,0.93256 0.4309,1.42005 0.097,0.48749 0.1458,0.9798 0.1458,1.47693 v 35.35998 c 0,0.49707 -0.049,0.98932 -0.1458,1.47681 -0.097,0.48749 -0.2407,0.96081 -0.4309,1.42004 -0.1901,0.45923 -0.4233,0.89545 -0.6994,1.30872 -0.2761,0.41333 -0.5901,0.79571 -0.9414,1.14715 -0.3516,0.35145 -0.7342,0.66523 -1.1475,0.94135 -0.4133,0.27618 -0.8496,0.50934 -1.3088,0.69959 -0.4593,0.19024 -0.9324,0.33386 -1.4197,0.43084 -0.4876,0.097 -0.9797,0.14545 -1.4766,0.14551 h -104.8598 c -0.4973,-6e-5 -0.9895,-0.0486 -1.4771,-0.14557 -0.4875,-0.097 -0.9609,-0.24054 -1.4201,-0.43078 -0.4593,-0.19025 -0.8956,-0.42341 -1.3086,-0.69953 -0.4134,-0.27618 -0.7957,-0.58996 -1.1473,-0.94141 -0.3518,-0.35144 -0.6655,-0.73382 -0.9416,-1.14709 -0.2761,-0.41327 -0.5093,-0.84955 -0.6995,-1.30878 -0.1902,-0.45923 -0.3337,-0.93255 -0.4306,-1.42004 -0.097,-0.48749 -0.1453,-0.97974 -0.1453,-1.47681 v -35.35998 c 0,-0.49713 0.048,-0.98944 0.1453,-1.47693 0.097,-0.48749 0.2404,-0.96088 0.4306,-1.42011 0.1902,-0.45922 0.4234,-0.8955 0.6995,-1.30883 0.2761,-0.41327 0.5898,-0.7956 0.9416,-1.14704 0.3516,-0.35144 0.7339,-0.66528 1.1473,-0.94147 0.413,-0.27618 0.8493,-0.50933 1.3086,-0.69952 0.4592,-0.19018 0.9326,-0.33374 1.4201,-0.43066 0.4876,-0.097 0.9798,-0.14545 1.4771,-0.14545 z" /></g><g
           transform="matrix(2.9676895,0,0,2.9676895,-5403.6777,-100.11489)"
           id="g410"><text
             id="text414"
             style="font-variant:normal;font-weight:normal;font-size:12px;font-family:ArialMT;-inkscape-font-specification:ArialMT;writing-mode:lr-tb;fill:#000000;fill-opacity:1;fill-rule:nonzero;stroke:none"
             transform="translate(2269.7344,882)"><tspan
               id="tspan412"
               y="0"
               x="0 7.7871094 10.453125 17.126953 25.792969 29.126953 37.130859 40.464844 47.138672 53.8125 60.486328 67.160156 70.494141 73.828125 82.494141 89.167969 92.501953 99.175781 101.8418 104.50781">View Student Details</tspan></text>
<text
             id="text418"
             style="font-variant:normal;font-weight:normal;font-size:12px;font-family:ArialMT;-inkscape-font-specification:ArialMT;writing-mode:lr-tb;fill:#000000;fill-opacity:1;fill-rule:nonzero;stroke:none"
             transform="translate(2282.625,897)"><tspan
               id="tspan416"
               y="0"
               x="0 8.6660156 11.332031 14.666016 21.339844 24.011719 32.015625 35.349609 38.683594 45.357422 52.03125 58.705078 65.378906 72.052734 78.052734">with Attendance</tspan></text>
</g></g></g></g></svg>